<svg width="60" height="60" viewBox="0 0 60 60" fill="none" xmlns="http://www.w3.org/2000/svg">
<rect width="60" height="60" rx="10" fill="#FBE9E9"/>
<path d="M14.9534 38.0125H19.7571V42.2855H14.9534V38.0125ZM14.9534 32.5576H19.7571V36.8307H14.9534V32.5576ZM21.165 38.0125H25.9692V42.2855H21.165V38.0125ZM21.165 32.5576H25.9692V36.8307H21.165V32.5576ZM21.165 27.1026H25.9692V31.376H21.165V27.1026ZM27.3765 38.0125H32.1807V42.2855H27.3765V38.0125ZM27.3765 32.5576H32.1807V36.8307H27.3765V32.5576ZM27.3765 27.1026H32.1807V31.376H27.3765V27.1026ZM33.5881 38.0125H38.3924V42.2855H33.5881V38.0125ZM33.5881 32.5576H38.3924V36.8307H33.5881V32.5576ZM33.5881 27.1026H38.3924V31.376H33.5881V27.1026ZM39.801 32.5576H44.604V36.8307H39.801V32.5576ZM39.801 27.1026H44.604V31.376H39.801V27.1026ZM13.6094 44.3905C13.9973 44.7777 14.5336 45 15.0816 45H15.3422H16.4508H44.4759C45.0236 45 45.5601 44.7777 45.9478 44.3901C46.3347 44.0028 46.5573 43.4668 46.5573 42.9187V25.7062H13V42.9187C13 43.4668 13.2226 44.0028 13.6094 44.3905Z" fill="#B47471"/>
<path d="M46.5573 24.9546V23.7224H13V24.9546H46.5573Z" fill="#E89592"/>
<path d="M16.4508 17.7988H15.0816C14.5336 17.7988 13.9973 18.0207 13.6094 18.4082C13.2226 18.7958 13 19.3316 13 19.8793V22.2977H46.5573V19.8793C46.5573 19.3316 46.3347 18.7958 45.9472 18.4082C45.5601 18.0207 45.0236 17.7988 44.4759 17.7988H40.9455V20.5233C40.9455 21.0315 40.5332 21.4438 40.0245 21.4438H38.0841C37.5754 21.4438 37.1641 21.0315 37.1641 20.5233V17.7988H22.3944V20.5233C22.3944 21.0315 21.9817 21.4438 21.474 21.4438H19.5329C19.0241 21.4438 18.6129 21.0315 18.6129 20.5233V17.7988H16.4508Z" fill="#E89592"/>
<path d="M46.5573 23.7224V22.2977H13V23.7224H46.5573Z" fill="#EF928F"/>
<path d="M19.5329 20.5233H21.474V15.4021H19.5329V17.7988V20.5233Z" fill="#B47471"/>
<path d="M38.0841 20.5233H40.0245V15.4021H38.0841V17.7988V20.5233Z" fill="#B47471"/>
<path d="M25.9692 31.376V27.1026H21.165V31.376H25.9692Z" fill="#EF928F"/>
<path d="M32.1807 31.376V27.1026H27.3765V31.376H32.1807Z" fill="#EF928F"/>
<path d="M38.3923 31.376V27.1026H33.588V31.376H38.3923Z" fill="#EF928F"/>
<path d="M44.6041 31.376V27.1026H39.801V31.376H44.6041Z" fill="#EF928F"/>
<path d="M19.7571 36.8307V32.5576H14.9534V36.8307H19.7571Z" fill="#EF928F"/>
<path d="M25.9692 36.8307V32.5576H21.165V36.8307H25.9692Z" fill="#EF928F"/>
<path d="M32.1807 36.8307V32.5576H27.3765V36.8307H32.1807Z" fill="#EF928F"/>
<path d="M38.3923 36.8307V32.5576H33.588V36.8307H38.3923Z" fill="#E89592"/>
<path d="M44.6041 36.8307V32.5576H39.801V36.8307H44.6041Z" fill="#EF928F"/>
<path d="M19.7571 42.2855V38.0125H14.9534V42.2855H19.7571Z" fill="#EF928F"/>
<path d="M25.9692 42.2855V38.0125H21.165V42.2855H25.9692Z" fill="#E89592"/>
<path d="M32.1807 42.2855V38.0125H27.3765V42.2855H32.1807Z" fill="#EF928F"/>
<path d="M38.3923 42.2855V38.0125H33.588V42.2855H38.3923Z" fill="#EF928F"/>
</svg>
