<svg width="62" height="70" viewBox="0 0 62 70" fill="none" xmlns="http://www.w3.org/2000/svg">
<path d="M6 17L9.645 64.383C9.845 66.988 12.017 69 14.63 69H47.37C49.983 69 52.155 66.988 52.355 64.383L56 17" fill="#EF928F"/>
<path d="M46 25V60C46 61.65 44.65 63 43 63C41.35 63 40 61.65 40 60V25C40 23.35 41.35 22 43 22C44.65 22 46 23.35 46 25ZM34 25V60C34 61.65 32.65 63 31 63C29.35 63 28 61.65 28 60V25C28 23.35 29.35 22 31 22C32.65 22 34 23.35 34 25ZM22 25V60C22 61.65 20.65 63 19 63C17.35 63 16 61.65 16 60V25C16 23.35 17.35 22 19 22C20.65 22 22 23.35 22 25ZM58 11H54L52.165 7.942C51.442 6.737 50.14 6 48.735 6H13.265C11.86 6 10.558 6.737 9.835 7.942L8 11H4C2.343 11 1 12.343 1 14C1 15.657 2.343 17 4 17H58C59.657 17 61 15.657 61 14C61 12.343 59.657 11 58 11Z" fill="#FCDDEC"/>
<path d="M47.3699 70H14.6299C11.5139 70 8.88593 67.566 8.64793 64.46L5.00293 17.077L6.99693 16.923L10.6419 64.307C10.8009 66.378 12.5529 68 14.6299 68H47.3699C49.4469 68 51.1989 66.378 51.3579 64.308L55.0029 16.923L56.9969 17.077L53.3519 64.461C53.1129 67.566 50.4849 70 47.3699 70ZM36.9999 7C36.4479 7 35.9999 6.553 35.9999 6V3C35.9999 2.448 35.5509 2 34.9999 2H26.9999C26.4489 2 25.9999 2.448 25.9999 3V6C25.9999 6.553 25.5519 7 24.9999 7C24.4479 7 23.9999 6.553 23.9999 6V3C23.9999 1.346 25.3459 0 26.9999 0H34.9999C36.6539 0 37.9999 1.346 37.9999 3V6C37.9999 6.553 37.5519 7 36.9999 7Z" fill="#EF928F"/>
<path d="M58 18H4C1.794 18 0 16.206 0 14C0 11.794 1.794 10 4 10H7.434L8.977 7.428C9.875 5.931 11.518 5 13.265 5H48.736C50.483 5 52.125 5.931 53.023 7.428L54.566 10H58C60.206 10 62 11.794 62 14C62 16.206 60.206 18 58 18ZM4 12C2.897 12 2 12.897 2 14C2 15.103 2.897 16 4 16H58C59.103 16 60 15.103 60 14C60 12.897 59.103 12 58 12H54C53.649 12 53.323 11.815 53.143 11.515L51.308 8.457C50.769 7.559 49.783 7 48.735 7H13.265C12.217 7 11.232 7.559 10.693 8.457L8.858 11.515C8.677 11.815 8.351 12 8 12H4Z" fill="#1F212B"/>
<path d="M42.5 12H6.5C6.224 12 6 11.776 6 11.5C6 11.224 6.224 11 6.5 11H42.5C42.776 11 43 11.224 43 11.5C43 11.776 42.776 12 42.5 12ZM54.5 12H49.5C49.224 12 49 11.776 49 11.5C49 11.224 49.224 11 49.5 11H54.5C54.776 11 55 11.224 55 11.5C55 11.776 54.776 12 54.5 12ZM47.5 12H45.5C45.224 12 45 11.776 45 11.5C45 11.224 45.224 11 45.5 11H47.5C47.776 11 48 11.224 48 11.5C48 11.776 47.776 12 47.5 12ZM31 63C29.346 63 28 61.654 28 60V25C28 23.346 29.346 22 31 22C32.654 22 34 23.346 34 25V50.5C34 50.776 33.776 51 33.5 51C33.224 51 33 50.776 33 50.5V25C33 23.897 32.103 23 31 23C29.897 23 29 23.897 29 25V60C29 61.103 29.897 62 31 62C32.103 62 33 61.103 33 60V56.5C33 56.224 33.224 56 33.5 56C33.776 56 34 56.224 34 56.5V60C34 61.654 32.654 63 31 63ZM43 63C41.346 63 40 61.654 40 60V34.5C40 34.224 40.224 34 40.5 34C40.776 34 41 34.224 41 34.5V60C41 61.103 41.897 62 43 62C44.103 62 45 61.103 45 60V25C45 23.897 44.103 23 43 23C41.897 23 41 23.897 41 25V26.5C41 26.776 40.776 27 40.5 27C40.224 27 40 26.776 40 26.5V25C40 23.346 41.346 22 43 22C44.654 22 46 23.346 46 25V60C46 61.654 44.654 63 43 63Z" fill="#1F212B"/>
<path d="M40.5 32C40.224 32 40 31.776 40 31.5V29.5C40 29.224 40.224 29 40.5 29C40.776 29 41 29.224 41 29.5V31.5C41 31.776 40.776 32 40.5 32ZM19 63C17.346 63 16 61.654 16 60V25C16 23.346 17.346 22 19 22C20.654 22 22 23.346 22 25V60C22 61.654 20.654 63 19 63ZM19 23C17.897 23 17 23.897 17 25V60C17 61.103 17.897 62 19 62C20.103 62 21 61.103 21 60V25C21 23.897 20.103 23 19 23Z" fill="#1F212B"/>
</svg>
